<?xml version="1.0" encoding="utf-8" standalone="no"?>
<!DOCTYPE svg PUBLIC "-//W3C//DTD SVG 1.1//EN"
  "http://www.w3.org/Graphics/SVG/1.1/DTD/svg11.dtd">
<svg xmlns:xlink="http://www.w3.org/1999/xlink" width="478.676563pt" height="226.63875pt" viewBox="0 0 478.676563 226.63875" xmlns="http://www.w3.org/2000/svg" version="1.1">
 <metadata>
  <rdf:RDF xmlns:dc="http://purl.org/dc/elements/1.1/" xmlns:cc="http://creativecommons.org/ns#" xmlns:rdf="http://www.w3.org/1999/02/22-rdf-syntax-ns#">
   <cc:Work>
    <dc:type rdf:resource="http://purl.org/dc/dcmitype/StillImage"/>
    <dc:date>2023-05-31T08:58:08.838931</dc:date>
    <dc:format>image/svg+xml</dc:format>
    <dc:creator>
     <cc:Agent>
      <dc:title>Matplotlib v3.5.3, https://matplotlib.org/</dc:title>
     </cc:Agent>
    </dc:creator>
   </cc:Work>
  </rdf:RDF>
 </metadata>
 <defs>
  <style type="text/css">*{stroke-linejoin: round; stroke-linecap: butt}</style>
 </defs>
 <g id="figure_1">
  <g id="patch_1">
   <path d="M 0 226.63875 
L 478.676563 226.63875 
L 478.676563 0 
L 0 0 
z
" style="fill: #ffffff"/>
  </g>
  <g id="axes_1">
   <g id="patch_2">
    <path d="M 36.459063 183.26625 
L 221.694063 183.26625 
L 221.694063 9.32625 
L 36.459063 9.32625 
z
" style="fill: #ffffff"/>
   </g>
   <g id="matplotlib.axis_1">
    <g id="xtick_1">
     <g id="line2d_1">
      <defs>
       <path id="m28d27570ad" d="M 0 0 
L 0 -6 
" style="stroke: #000000; stroke-width: 1.5"/>
      </defs>
      <g>
       <use xlink:href="#m28d27570ad" x="36.459063" y="183.26625" style="stroke: #000000; stroke-width: 1.5"/>
      </g>
     </g>
     <g id="line2d_2">
      <defs>
       <path id="m81129c5e28" d="M 0 0 
L 0 6 
" style="stroke: #000000; stroke-width: 1.5"/>
      </defs>
      <g>
       <use xlink:href="#m81129c5e28" x="36.459063" y="9.32625" style="stroke: #000000; stroke-width: 1.5"/>
      </g>
     </g>
     <g id="text_1">
      <!-- 0 -->
      <g transform="translate(32.010312 198.21875)scale(0.16 -0.16)">
       <defs>
        <path id="ArialMT-30" d="M 266 2259 
Q 266 3072 433 3567 
Q 600 4063 929 4331 
Q 1259 4600 1759 4600 
Q 2128 4600 2406 4451 
Q 2684 4303 2865 4023 
Q 3047 3744 3150 3342 
Q 3253 2941 3253 2259 
Q 3253 1453 3087 958 
Q 2922 463 2592 192 
Q 2263 -78 1759 -78 
Q 1097 -78 719 397 
Q 266 969 266 2259 
z
M 844 2259 
Q 844 1131 1108 757 
Q 1372 384 1759 384 
Q 2147 384 2411 759 
Q 2675 1134 2675 2259 
Q 2675 3391 2411 3762 
Q 2147 4134 1753 4134 
Q 1366 4134 1134 3806 
Q 844 3388 844 2259 
z
" transform="scale(0.015625)"/>
       </defs>
       <use xlink:href="#ArialMT-30"/>
      </g>
     </g>
    </g>
    <g id="xtick_2">
     <g id="line2d_3">
      <g>
       <use xlink:href="#m28d27570ad" x="98.204063" y="183.26625" style="stroke: #000000; stroke-width: 1.5"/>
      </g>
     </g>
     <g id="line2d_4">
      <g>
       <use xlink:href="#m81129c5e28" x="98.204063" y="9.32625" style="stroke: #000000; stroke-width: 1.5"/>
      </g>
     </g>
     <g id="text_2">
      <!-- 5 -->
      <g transform="translate(93.755313 198.21875)scale(0.16 -0.16)">
       <defs>
        <path id="ArialMT-35" d="M 266 1200 
L 856 1250 
Q 922 819 1161 601 
Q 1400 384 1738 384 
Q 2144 384 2425 690 
Q 2706 997 2706 1503 
Q 2706 1984 2436 2262 
Q 2166 2541 1728 2541 
Q 1456 2541 1237 2417 
Q 1019 2294 894 2097 
L 366 2166 
L 809 4519 
L 3088 4519 
L 3088 3981 
L 1259 3981 
L 1013 2750 
Q 1425 3038 1878 3038 
Q 2478 3038 2890 2622 
Q 3303 2206 3303 1553 
Q 3303 931 2941 478 
Q 2500 -78 1738 -78 
Q 1113 -78 717 272 
Q 322 622 266 1200 
z
" transform="scale(0.015625)"/>
       </defs>
       <use xlink:href="#ArialMT-35"/>
      </g>
     </g>
    </g>
    <g id="xtick_3">
     <g id="line2d_5">
      <g>
       <use xlink:href="#m28d27570ad" x="159.949063" y="183.26625" style="stroke: #000000; stroke-width: 1.5"/>
      </g>
     </g>
     <g id="line2d_6">
      <g>
       <use xlink:href="#m81129c5e28" x="159.949063" y="9.32625" style="stroke: #000000; stroke-width: 1.5"/>
      </g>
     </g>
     <g id="text_3">
      <!-- 10 -->
      <g transform="translate(151.051563 198.21875)scale(0.16 -0.16)">
       <defs>
        <path id="ArialMT-31" d="M 2384 0 
L 1822 0 
L 1822 3584 
Q 1619 3391 1289 3197 
Q 959 3003 697 2906 
L 697 3450 
Q 1169 3672 1522 3987 
Q 1875 4303 2022 4600 
L 2384 4600 
L 2384 0 
z
" transform="scale(0.015625)"/>
       </defs>
       <use xlink:href="#ArialMT-31"/>
       <use xlink:href="#ArialMT-30" x="55.615234"/>
      </g>
     </g>
    </g>
    <g id="xtick_4">
     <g id="line2d_7">
      <g>
       <use xlink:href="#m28d27570ad" x="221.694063" y="183.26625" style="stroke: #000000; stroke-width: 1.5"/>
      </g>
     </g>
     <g id="line2d_8">
      <g>
       <use xlink:href="#m81129c5e28" x="221.694063" y="9.32625" style="stroke: #000000; stroke-width: 1.5"/>
      </g>
     </g>
     <g id="text_4">
      <!-- 15 -->
      <g transform="translate(212.796563 198.21875)scale(0.16 -0.16)">
       <use xlink:href="#ArialMT-31"/>
       <use xlink:href="#ArialMT-35" x="55.615234"/>
      </g>
     </g>
    </g>
    <g id="xtick_5">
     <g id="line2d_9">
      <defs>
       <path id="ma05d2a6437" d="M 0 0 
L 0 -4 
" style="stroke: #000000; stroke-width: 1.5"/>
      </defs>
      <g>
       <use xlink:href="#ma05d2a6437" x="48.808063" y="183.26625" style="stroke: #000000; stroke-width: 1.5"/>
      </g>
     </g>
     <g id="line2d_10">
      <defs>
       <path id="m173fed2b85" d="M 0 0 
L 0 4 
" style="stroke: #000000; stroke-width: 1.5"/>
      </defs>
      <g>
       <use xlink:href="#m173fed2b85" x="48.808063" y="9.32625" style="stroke: #000000; stroke-width: 1.5"/>
      </g>
     </g>
    </g>
    <g id="xtick_6">
     <g id="line2d_11">
      <g>
       <use xlink:href="#ma05d2a6437" x="61.157063" y="183.26625" style="stroke: #000000; stroke-width: 1.5"/>
      </g>
     </g>
     <g id="line2d_12">
      <g>
       <use xlink:href="#m173fed2b85" x="61.157063" y="9.32625" style="stroke: #000000; stroke-width: 1.5"/>
      </g>
     </g>
    </g>
    <g id="xtick_7">
     <g id="line2d_13">
      <g>
       <use xlink:href="#ma05d2a6437" x="73.506063" y="183.26625" style="stroke: #000000; stroke-width: 1.5"/>
      </g>
     </g>
     <g id="line2d_14">
      <g>
       <use xlink:href="#m173fed2b85" x="73.506063" y="9.32625" style="stroke: #000000; stroke-width: 1.5"/>
      </g>
     </g>
    </g>
    <g id="xtick_8">
     <g id="line2d_15">
      <g>
       <use xlink:href="#ma05d2a6437" x="85.855063" y="183.26625" style="stroke: #000000; stroke-width: 1.5"/>
      </g>
     </g>
     <g id="line2d_16">
      <g>
       <use xlink:href="#m173fed2b85" x="85.855063" y="9.32625" style="stroke: #000000; stroke-width: 1.5"/>
      </g>
     </g>
    </g>
    <g id="xtick_9">
     <g id="line2d_17">
      <g>
       <use xlink:href="#ma05d2a6437" x="110.553063" y="183.26625" style="stroke: #000000; stroke-width: 1.5"/>
      </g>
     </g>
     <g id="line2d_18">
      <g>
       <use xlink:href="#m173fed2b85" x="110.553063" y="9.32625" style="stroke: #000000; stroke-width: 1.5"/>
      </g>
     </g>
    </g>
    <g id="xtick_10">
     <g id="line2d_19">
      <g>
       <use xlink:href="#ma05d2a6437" x="122.902063" y="183.26625" style="stroke: #000000; stroke-width: 1.5"/>
      </g>
     </g>
     <g id="line2d_20">
      <g>
       <use xlink:href="#m173fed2b85" x="122.902063" y="9.32625" style="stroke: #000000; stroke-width: 1.5"/>
      </g>
     </g>
    </g>
    <g id="xtick_11">
     <g id="line2d_21">
      <g>
       <use xlink:href="#ma05d2a6437" x="135.251063" y="183.26625" style="stroke: #000000; stroke-width: 1.5"/>
      </g>
     </g>
     <g id="line2d_22">
      <g>
       <use xlink:href="#m173fed2b85" x="135.251063" y="9.32625" style="stroke: #000000; stroke-width: 1.5"/>
      </g>
     </g>
    </g>
    <g id="xtick_12">
     <g id="line2d_23">
      <g>
       <use xlink:href="#ma05d2a6437" x="147.600063" y="183.26625" style="stroke: #000000; stroke-width: 1.5"/>
      </g>
     </g>
     <g id="line2d_24">
      <g>
       <use xlink:href="#m173fed2b85" x="147.600063" y="9.32625" style="stroke: #000000; stroke-width: 1.5"/>
      </g>
     </g>
    </g>
    <g id="xtick_13">
     <g id="line2d_25">
      <g>
       <use xlink:href="#ma05d2a6437" x="172.298063" y="183.26625" style="stroke: #000000; stroke-width: 1.5"/>
      </g>
     </g>
     <g id="line2d_26">
      <g>
       <use xlink:href="#m173fed2b85" x="172.298063" y="9.32625" style="stroke: #000000; stroke-width: 1.5"/>
      </g>
     </g>
    </g>
    <g id="xtick_14">
     <g id="line2d_27">
      <g>
       <use xlink:href="#ma05d2a6437" x="184.647063" y="183.26625" style="stroke: #000000; stroke-width: 1.5"/>
      </g>
     </g>
     <g id="line2d_28">
      <g>
       <use xlink:href="#m173fed2b85" x="184.647063" y="9.32625" style="stroke: #000000; stroke-width: 1.5"/>
      </g>
     </g>
    </g>
    <g id="xtick_15">
     <g id="line2d_29">
      <g>
       <use xlink:href="#ma05d2a6437" x="196.996063" y="183.26625" style="stroke: #000000; stroke-width: 1.5"/>
      </g>
     </g>
     <g id="line2d_30">
      <g>
       <use xlink:href="#m173fed2b85" x="196.996063" y="9.32625" style="stroke: #000000; stroke-width: 1.5"/>
      </g>
     </g>
    </g>
    <g id="xtick_16">
     <g id="line2d_31">
      <g>
       <use xlink:href="#ma05d2a6437" x="209.345063" y="183.26625" style="stroke: #000000; stroke-width: 1.5"/>
      </g>
     </g>
     <g id="line2d_32">
      <g>
       <use xlink:href="#m173fed2b85" x="209.345063" y="9.32625" style="stroke: #000000; stroke-width: 1.5"/>
      </g>
     </g>
    </g>
    <g id="text_5">
     <!-- $\hbar \omega$ (eV) -->
     <g transform="translate(95.776563 219.07875)scale(0.18 -0.18)">
      <defs>
       <path id="DejaVuSans-Oblique-127" d="M 3634 2113 
L 3225 0 
L 2650 0 
L 3056 2094 
Q 3094 2291 3094 2450 
Q 3094 2688 3006 2838 
Q 2863 3084 2475 3084 
Q 2009 3084 1681 2788 
Q 1356 2491 1256 1978 
L 872 0 
L 294 0 
L 1066 3969 
L 675 3969 
L 775 4481 
L 1166 4481 
L 1238 4863 
L 1816 4863 
L 1744 4481 
L 2844 4481 
L 2744 3969 
L 1644 3969 
L 1447 2956 
Q 1713 3272 2025 3428 
Q 2331 3584 2700 3584 
Q 3300 3584 3538 3213 
Q 3688 2975 3688 2606 
Q 3688 2381 3634 2113 
z
" transform="scale(0.015625)"/>
       <path id="DejaVuSans-Oblique-3c9" d="M 1369 -91 
Q 72 -91 434 1766 
Q 575 2500 1256 3500 
L 1875 3500 
Q 1231 2500 1088 1750 
Q 819 397 1519 397 
Q 2166 397 2478 2078 
L 3009 2078 
Q 2669 388 3316 397 
Q 4013 403 4275 1750 
Q 4419 2500 4169 3500 
L 4788 3500 
Q 5075 2500 4934 1766 
Q 4578 -94 3278 -91 
Q 2428 -88 2503 844 
Q 2194 -91 1369 -91 
z
" transform="scale(0.015625)"/>
       <path id="ArialMT-20" transform="scale(0.015625)"/>
       <path id="ArialMT-28" d="M 1497 -1347 
Q 1031 -759 709 28 
Q 388 816 388 1659 
Q 388 2403 628 3084 
Q 909 3875 1497 4659 
L 1900 4659 
Q 1522 4009 1400 3731 
Q 1209 3300 1100 2831 
Q 966 2247 966 1656 
Q 966 153 1900 -1347 
L 1497 -1347 
z
" transform="scale(0.015625)"/>
       <path id="ArialMT-65" d="M 2694 1069 
L 3275 997 
Q 3138 488 2766 206 
Q 2394 -75 1816 -75 
Q 1088 -75 661 373 
Q 234 822 234 1631 
Q 234 2469 665 2931 
Q 1097 3394 1784 3394 
Q 2450 3394 2872 2941 
Q 3294 2488 3294 1666 
Q 3294 1616 3291 1516 
L 816 1516 
Q 847 969 1125 678 
Q 1403 388 1819 388 
Q 2128 388 2347 550 
Q 2566 713 2694 1069 
z
M 847 1978 
L 2700 1978 
Q 2663 2397 2488 2606 
Q 2219 2931 1791 2931 
Q 1403 2931 1139 2672 
Q 875 2413 847 1978 
z
" transform="scale(0.015625)"/>
       <path id="ArialMT-56" d="M 1803 0 
L 28 4581 
L 684 4581 
L 1875 1253 
Q 2019 853 2116 503 
Q 2222 878 2363 1253 
L 3600 4581 
L 4219 4581 
L 2425 0 
L 1803 0 
z
" transform="scale(0.015625)"/>
       <path id="ArialMT-29" d="M 791 -1347 
L 388 -1347 
Q 1322 153 1322 1656 
Q 1322 2244 1188 2822 
Q 1081 3291 891 3722 
Q 769 4003 388 4659 
L 791 4659 
Q 1378 3875 1659 3084 
Q 1900 2403 1900 1659 
Q 1900 816 1576 28 
Q 1253 -759 791 -1347 
z
" transform="scale(0.015625)"/>
      </defs>
      <use xlink:href="#DejaVuSans-Oblique-127" transform="translate(0 0.015625)"/>
      <use xlink:href="#DejaVuSans-Oblique-3c9" transform="translate(69.482422 0.015625)"/>
      <use xlink:href="#ArialMT-20" transform="translate(153.222656 0.015625)"/>
      <use xlink:href="#ArialMT-28" transform="translate(181.005859 0.015625)"/>
      <use xlink:href="#ArialMT-65" transform="translate(214.306641 0.015625)"/>
      <use xlink:href="#ArialMT-56" transform="translate(269.921875 0.015625)"/>
      <use xlink:href="#ArialMT-29" transform="translate(336.621094 0.015625)"/>
     </g>
    </g>
   </g>
   <g id="matplotlib.axis_2">
    <g id="ytick_1">
     <g id="line2d_33">
      <defs>
       <path id="m4f9059b154" d="M 0 0 
L 6 0 
" style="stroke: #000000; stroke-width: 1.5"/>
      </defs>
      <g>
       <use xlink:href="#m4f9059b154" x="36.459063" y="183.26625" style="stroke: #000000; stroke-width: 1.5"/>
      </g>
     </g>
     <g id="line2d_34">
      <defs>
       <path id="mf6a5b3c64a" d="M 0 0 
L -6 0 
" style="stroke: #000000; stroke-width: 1.5"/>
      </defs>
      <g>
       <use xlink:href="#mf6a5b3c64a" x="221.694063" y="183.26625" style="stroke: #000000; stroke-width: 1.5"/>
      </g>
     </g>
     <g id="text_6">
      <!-- 0 -->
      <g transform="translate(24.061563 188.9925)scale(0.16 -0.16)">
       <use xlink:href="#ArialMT-30"/>
      </g>
     </g>
    </g>
    <g id="ytick_2">
     <g id="line2d_35">
      <g>
       <use xlink:href="#m4f9059b154" x="36.459063" y="129.74625" style="stroke: #000000; stroke-width: 1.5"/>
      </g>
     </g>
     <g id="line2d_36">
      <g>
       <use xlink:href="#mf6a5b3c64a" x="221.694063" y="129.74625" style="stroke: #000000; stroke-width: 1.5"/>
      </g>
     </g>
     <g id="text_7">
      <!-- 2 -->
      <g transform="translate(24.061563 135.4725)scale(0.16 -0.16)">
       <defs>
        <path id="ArialMT-32" d="M 3222 541 
L 3222 0 
L 194 0 
Q 188 203 259 391 
Q 375 700 629 1000 
Q 884 1300 1366 1694 
Q 2113 2306 2375 2664 
Q 2638 3022 2638 3341 
Q 2638 3675 2398 3904 
Q 2159 4134 1775 4134 
Q 1369 4134 1125 3890 
Q 881 3647 878 3216 
L 300 3275 
Q 359 3922 746 4261 
Q 1134 4600 1788 4600 
Q 2447 4600 2831 4234 
Q 3216 3869 3216 3328 
Q 3216 3053 3103 2787 
Q 2991 2522 2730 2228 
Q 2469 1934 1863 1422 
Q 1356 997 1212 845 
Q 1069 694 975 541 
L 3222 541 
z
" transform="scale(0.015625)"/>
       </defs>
       <use xlink:href="#ArialMT-32"/>
      </g>
     </g>
    </g>
    <g id="ytick_3">
     <g id="line2d_37">
      <g>
       <use xlink:href="#m4f9059b154" x="36.459063" y="76.22625" style="stroke: #000000; stroke-width: 1.5"/>
      </g>
     </g>
     <g id="line2d_38">
      <g>
       <use xlink:href="#mf6a5b3c64a" x="221.694063" y="76.22625" style="stroke: #000000; stroke-width: 1.5"/>
      </g>
     </g>
     <g id="text_8">
      <!-- 4 -->
      <g transform="translate(24.061563 81.9525)scale(0.16 -0.16)">
       <defs>
        <path id="ArialMT-34" d="M 2069 0 
L 2069 1097 
L 81 1097 
L 81 1613 
L 2172 4581 
L 2631 4581 
L 2631 1613 
L 3250 1613 
L 3250 1097 
L 2631 1097 
L 2631 0 
L 2069 0 
z
M 2069 1613 
L 2069 3678 
L 634 1613 
L 2069 1613 
z
" transform="scale(0.015625)"/>
       </defs>
       <use xlink:href="#ArialMT-34"/>
      </g>
     </g>
    </g>
    <g id="ytick_4">
     <g id="line2d_39">
      <g>
       <use xlink:href="#m4f9059b154" x="36.459063" y="22.70625" style="stroke: #000000; stroke-width: 1.5"/>
      </g>
     </g>
     <g id="line2d_40">
      <g>
       <use xlink:href="#mf6a5b3c64a" x="221.694063" y="22.70625" style="stroke: #000000; stroke-width: 1.5"/>
      </g>
     </g>
     <g id="text_9">
      <!-- 6 -->
      <g transform="translate(24.061563 28.4325)scale(0.16 -0.16)">
       <defs>
        <path id="ArialMT-36" d="M 3184 3459 
L 2625 3416 
Q 2550 3747 2413 3897 
Q 2184 4138 1850 4138 
Q 1581 4138 1378 3988 
Q 1113 3794 959 3422 
Q 806 3050 800 2363 
Q 1003 2672 1297 2822 
Q 1591 2972 1913 2972 
Q 2475 2972 2870 2558 
Q 3266 2144 3266 1488 
Q 3266 1056 3080 686 
Q 2894 316 2569 119 
Q 2244 -78 1831 -78 
Q 1128 -78 684 439 
Q 241 956 241 2144 
Q 241 3472 731 4075 
Q 1159 4600 1884 4600 
Q 2425 4600 2770 4297 
Q 3116 3994 3184 3459 
z
M 888 1484 
Q 888 1194 1011 928 
Q 1134 663 1356 523 
Q 1578 384 1822 384 
Q 2178 384 2434 671 
Q 2691 959 2691 1453 
Q 2691 1928 2437 2201 
Q 2184 2475 1800 2475 
Q 1419 2475 1153 2201 
Q 888 1928 888 1484 
z
" transform="scale(0.015625)"/>
       </defs>
       <use xlink:href="#ArialMT-36"/>
      </g>
     </g>
    </g>
    <g id="ytick_5">
     <g id="line2d_41">
      <defs>
       <path id="md0b93c266d" d="M 0 0 
L 4 0 
" style="stroke: #000000; stroke-width: 1.5"/>
      </defs>
      <g>
       <use xlink:href="#md0b93c266d" x="36.459063" y="169.88625" style="stroke: #000000; stroke-width: 1.5"/>
      </g>
     </g>
     <g id="line2d_42">
      <defs>
       <path id="ma901343ac4" d="M 0 0 
L -4 0 
" style="stroke: #000000; stroke-width: 1.5"/>
      </defs>
      <g>
       <use xlink:href="#ma901343ac4" x="221.694063" y="169.88625" style="stroke: #000000; stroke-width: 1.5"/>
      </g>
     </g>
    </g>
    <g id="ytick_6">
     <g id="line2d_43">
      <g>
       <use xlink:href="#md0b93c266d" x="36.459063" y="156.50625" style="stroke: #000000; stroke-width: 1.5"/>
      </g>
     </g>
     <g id="line2d_44">
      <g>
       <use xlink:href="#ma901343ac4" x="221.694063" y="156.50625" style="stroke: #000000; stroke-width: 1.5"/>
      </g>
     </g>
    </g>
    <g id="ytick_7">
     <g id="line2d_45">
      <g>
       <use xlink:href="#md0b93c266d" x="36.459063" y="143.12625" style="stroke: #000000; stroke-width: 1.5"/>
      </g>
     </g>
     <g id="line2d_46">
      <g>
       <use xlink:href="#ma901343ac4" x="221.694063" y="143.12625" style="stroke: #000000; stroke-width: 1.5"/>
      </g>
     </g>
    </g>
    <g id="ytick_8">
     <g id="line2d_47">
      <g>
       <use xlink:href="#md0b93c266d" x="36.459063" y="116.36625" style="stroke: #000000; stroke-width: 1.5"/>
      </g>
     </g>
     <g id="line2d_48">
      <g>
       <use xlink:href="#ma901343ac4" x="221.694063" y="116.36625" style="stroke: #000000; stroke-width: 1.5"/>
      </g>
     </g>
    </g>
    <g id="ytick_9">
     <g id="line2d_49">
      <g>
       <use xlink:href="#md0b93c266d" x="36.459063" y="102.98625" style="stroke: #000000; stroke-width: 1.5"/>
      </g>
     </g>
     <g id="line2d_50">
      <g>
       <use xlink:href="#ma901343ac4" x="221.694063" y="102.98625" style="stroke: #000000; stroke-width: 1.5"/>
      </g>
     </g>
    </g>
    <g id="ytick_10">
     <g id="line2d_51">
      <g>
       <use xlink:href="#md0b93c266d" x="36.459063" y="89.60625" style="stroke: #000000; stroke-width: 1.5"/>
      </g>
     </g>
     <g id="line2d_52">
      <g>
       <use xlink:href="#ma901343ac4" x="221.694063" y="89.60625" style="stroke: #000000; stroke-width: 1.5"/>
      </g>
     </g>
    </g>
    <g id="ytick_11">
     <g id="line2d_53">
      <g>
       <use xlink:href="#md0b93c266d" x="36.459063" y="62.84625" style="stroke: #000000; stroke-width: 1.5"/>
      </g>
     </g>
     <g id="line2d_54">
      <g>
       <use xlink:href="#ma901343ac4" x="221.694063" y="62.84625" style="stroke: #000000; stroke-width: 1.5"/>
      </g>
     </g>
    </g>
    <g id="ytick_12">
     <g id="line2d_55">
      <g>
       <use xlink:href="#md0b93c266d" x="36.459063" y="49.46625" style="stroke: #000000; stroke-width: 1.5"/>
      </g>
     </g>
     <g id="line2d_56">
      <g>
       <use xlink:href="#ma901343ac4" x="221.694063" y="49.46625" style="stroke: #000000; stroke-width: 1.5"/>
      </g>
     </g>
    </g>
    <g id="ytick_13">
     <g id="line2d_57">
      <g>
       <use xlink:href="#md0b93c266d" x="36.459063" y="36.08625" style="stroke: #000000; stroke-width: 1.5"/>
      </g>
     </g>
     <g id="line2d_58">
      <g>
       <use xlink:href="#ma901343ac4" x="221.694063" y="36.08625" style="stroke: #000000; stroke-width: 1.5"/>
      </g>
     </g>
    </g>
    <g id="ytick_14">
     <g id="line2d_59">
      <g>
       <use xlink:href="#md0b93c266d" x="36.459063" y="9.32625" style="stroke: #000000; stroke-width: 1.5"/>
      </g>
     </g>
     <g id="line2d_60">
      <g>
       <use xlink:href="#ma901343ac4" x="221.694063" y="9.32625" style="stroke: #000000; stroke-width: 1.5"/>
      </g>
     </g>
    </g>
    <g id="text_10">
     <!-- $n(\hbar \omega)$ -->
     <g transform="translate(16.484063 122.84625)rotate(-90)scale(0.18 -0.18)">
      <defs>
       <path id="DejaVuSans-Oblique-6e" d="M 3566 2113 
L 3156 0 
L 2578 0 
L 2988 2091 
Q 3016 2238 3031 2350 
Q 3047 2463 3047 2528 
Q 3047 2791 2881 2937 
Q 2716 3084 2419 3084 
Q 1956 3084 1622 2776 
Q 1288 2469 1184 1941 
L 800 0 
L 225 0 
L 903 3500 
L 1478 3500 
L 1363 2950 
Q 1603 3253 1940 3418 
Q 2278 3584 2650 3584 
Q 3113 3584 3367 3334 
Q 3622 3084 3622 2631 
Q 3622 2519 3608 2391 
Q 3594 2263 3566 2113 
z
" transform="scale(0.015625)"/>
       <path id="DejaVuSans-28" d="M 1984 4856 
Q 1566 4138 1362 3434 
Q 1159 2731 1159 2009 
Q 1159 1288 1364 580 
Q 1569 -128 1984 -844 
L 1484 -844 
Q 1016 -109 783 600 
Q 550 1309 550 2009 
Q 550 2706 781 3412 
Q 1013 4119 1484 4856 
L 1984 4856 
z
" transform="scale(0.015625)"/>
       <path id="DejaVuSans-29" d="M 513 4856 
L 1013 4856 
Q 1481 4119 1714 3412 
Q 1947 2706 1947 2009 
Q 1947 1309 1714 600 
Q 1481 -109 1013 -844 
L 513 -844 
Q 928 -128 1133 580 
Q 1338 1288 1338 2009 
Q 1338 2731 1133 3434 
Q 928 4138 513 4856 
z
" transform="scale(0.015625)"/>
      </defs>
      <use xlink:href="#DejaVuSans-Oblique-6e" transform="translate(0 0.015625)"/>
      <use xlink:href="#DejaVuSans-28" transform="translate(63.378906 0.015625)"/>
      <use xlink:href="#DejaVuSans-Oblique-127" transform="translate(102.392578 0.015625)"/>
      <use xlink:href="#DejaVuSans-Oblique-3c9" transform="translate(171.875 0.015625)"/>
      <use xlink:href="#DejaVuSans-29" transform="translate(255.615234 0.015625)"/>
     </g>
    </g>
   </g>
   <g id="line2d_61">
    <path d="M 36.459063 40.859859 
L 37.200743 40.716292 
L 37.942424 40.279542 
L 38.684105 39.530369 
L 39.425786 38.433075 
L 40.167467 36.92836 
L 40.909148 34.919059 
L 41.650829 32.240008 
L 42.39251 28.595858 
L 43.134203 23.551491 
L 43.690464 19.77892 
L 43.875884 19.454321 
L 44.246725 19.965919 
L 44.432145 19.843679 
L 44.617565 19.410167 
L 44.988406 17.631698 
L 45.544666 14.483972 
L 46.100927 13.320448 
L 46.286347 13.1711 
L 46.471768 13.649756 
L 46.842608 15.047699 
L 47.028028 15.131671 
L 47.398869 14.544557 
L 47.584289 14.88192 
L 47.955129 17.598381 
L 48.69681 24.820905 
L 49.067651 26.633146 
L 49.253071 26.857101 
L 49.438491 26.448904 
L 50.551013 21.185399 
L 50.736433 21.232149 
L 51.107273 23.927496 
L 51.478114 26.209455 
L 51.663534 26.40855 
L 52.034375 26.353852 
L 52.219795 26.81771 
L 52.590635 29.407061 
L 52.961476 35.477005 
L 53.888577 53.964071 
L 54.444838 61.064676 
L 55.928212 90.93459 
L 56.113632 91.135718 
L 56.669893 89.046779 
L 56.855313 89.132304 
L 57.411574 90.606994 
L 58.894936 96.001034 
L 59.265776 96.389161 
L 59.451196 96.455231 
L 60.007457 97.022329 
L 60.563718 96.529142 
L 60.749138 96.594249 
L 60.934558 96.363926 
L 61.676239 94.251197 
L 62.41792 94.529367 
L 62.788761 95.439769 
L 63.159601 97.881057 
L 63.530442 100.469151 
L 63.901282 101.469333 
L 64.086702 101.361543 
L 64.457543 100.600489 
L 64.828383 100.34552 
L 65.013803 100.349373 
L 65.570064 101.205666 
L 65.755484 100.851658 
L 66.126325 99.731057 
L 66.311745 99.526476 
L 66.497165 99.697071 
L 67.238846 101.942235 
L 67.609699 103.626349 
L 68.72222 110.830141 
L 68.907641 110.568 
L 69.649322 106.937016 
L 69.834742 107.003033 
L 70.205582 108.554631 
L 72.616045 121.28241 
L 72.986886 121.990158 
L 73.357726 122.248847 
L 73.543147 122.358162 
L 73.728567 122.715568 
L 74.099407 124.143348 
L 74.841088 127.7822 
L 75.397349 128.496585 
L 75.95361 128.944895 
L 76.50987 129.300589 
L 76.880711 129.313353 
L 77.066131 129.470328 
L 77.251551 129.791742 
L 77.622392 131.412033 
L 78.178652 134.633349 
L 79.105754 138.01988 
L 79.476594 139.352929 
L 79.662014 139.521009 
L 79.847447 139.320924 
L 80.774548 137.334423 
L 81.516229 136.703261 
L 81.701649 136.712601 
L 81.887069 136.985017 
L 82.62875 138.581305 
L 82.999591 139.514908 
L 83.741272 142.093582 
L 84.112112 142.887069 
L 84.297533 142.962104 
L 84.668373 142.429634 
L 85.039213 141.905994 
L 85.410054 141.901953 
L 85.966315 142.050498 
L 86.337155 142.394257 
L 86.707996 142.874545 
L 87.078836 142.913829 
L 87.264256 142.945326 
L 87.635097 143.462596 
L 88.005937 144.211636 
L 88.191357 144.365773 
L 88.933038 144.297107 
L 89.489299 144.53503 
L 89.86014 144.133363 
L 90.23098 143.686417 
L 90.4164 143.553286 
L 90.601821 143.254698 
L 91.528922 140.421429 
L 91.899762 140.126454 
L 92.456035 139.722324 
L 92.826876 139.117709 
L 93.568557 136.806127 
L 95.051919 132.348446 
L 95.422759 132.0448 
L 95.793599 131.905033 
L 95.97902 131.718328 
L 96.34986 130.798587 
L 97.276961 127.872916 
L 98.018642 124.896241 
L 98.389483 124.207224 
L 98.760323 123.816609 
L 98.945743 123.807243 
L 99.131164 124.097268 
L 99.502004 125.928668 
L 100.243685 130.568745 
L 100.799946 132.326503 
L 101.170786 133.229599 
L 101.356206 133.44475 
L 101.541627 133.41336 
L 101.912467 133.166285 
L 102.097887 133.258179 
L 102.468728 133.897449 
L 103.024989 135.139808 
L 103.395829 135.382869 
L 104.13751 135.112112 
L 104.32293 134.951418 
L 105.250044 133.261122 
L 106.177145 133.098127 
L 106.362565 133.169416 
L 107.104246 133.886102 
L 107.475087 134.197401 
L 107.845927 134.568108 
L 108.031347 134.521251 
L 108.587608 133.918482 
L 108.958448 133.74018 
L 109.700129 132.919478 
L 109.88555 133.012602 
L 110.627231 133.993624 
L 111.183491 135.118293 
L 111.368912 135.097287 
L 111.739752 134.443995 
L 112.110592 133.940479 
L 112.296013 133.971975 
L 112.666853 134.407414 
L 113.223114 135.421377 
L 113.779375 135.877796 
L 114.706476 136.229556 
L 115.262736 135.954463 
L 115.448157 136.14957 
L 116.189838 137.497498 
L 116.746111 137.55447 
L 117.487792 136.932166 
L 118.044052 136.046357 
L 118.229473 136.083607 
L 119.156574 137.389495 
L 119.527414 137.250717 
L 119.898255 137.087267 
L 120.639936 137.210898 
L 121.381617 136.374006 
L 121.752457 136.451343 
L 122.123298 136.704144 
L 122.494138 136.624105 
L 122.864978 136.05385 
L 123.235819 135.572223 
L 123.421239 135.562001 
L 123.79208 135.913119 
L 124.533761 137.222191 
L 125.090021 137.48088 
L 125.831702 138.113567 
L 126.202543 138.098287 
L 126.944224 137.583023 
L 128.613006 135.409496 
L 128.983846 135.080348 
L 129.169279 135.095333 
L 129.540119 135.569975 
L 130.2818 136.97624 
L 131.208901 138.065158 
L 131.765162 139.040212 
L 132.136003 139.358469 
L 132.506843 139.365533 
L 133.248524 139.199434 
L 133.619364 139.489753 
L 134.731886 140.832704 
L 135.473567 141.305981 
L 135.844407 141.117189 
L 136.215248 140.950314 
L 137.142349 141.232632 
L 137.69861 141.099662 
L 137.88403 141.158239 
L 138.06945 141.365228 
L 138.440291 142.312077 
L 138.996551 143.870686 
L 139.367392 144.307998 
L 140.294493 144.52834 
L 141.221594 145.666844 
L 141.592447 145.703827 
L 141.963287 145.630424 
L 142.334128 145.802304 
L 144.18833 147.454305 
L 144.559171 147.488237 
L 145.300852 147.337926 
L 145.857112 147.17279 
L 146.227953 147.220503 
L 146.784213 147.396076 
L 147.155054 147.163371 
L 147.711315 146.349278 
L 148.267575 145.635214 
L 149.565517 144.921471 
L 150.121778 145.106196 
L 150.492618 144.936056 
L 150.863459 144.271444 
L 151.79056 142.054592 
L 152.346821 141.273093 
L 152.903081 140.71108 
L 153.459342 139.846009 
L 154.015615 139.672952 
L 154.942716 139.611458 
L 155.498977 139.239306 
L 155.869817 139.313111 
L 156.796919 139.981495 
L 157.353179 140.109488 
L 158.28028 140.874048 
L 158.836541 140.690528 
L 159.763642 140.766072 
L 160.505323 140.476448 
L 161.247004 139.95329 
L 161.803265 139.002026 
L 162.730366 137.354466 
L 163.101206 137.153177 
L 163.657467 137.26779 
L 164.028308 137.297092 
L 164.584568 137.932295 
L 164.955409 138.214265 
L 166.624203 138.534395 
L 166.995044 139.132561 
L 167.365884 139.82428 
L 167.551304 139.991958 
L 167.736725 140.000575 
L 168.107565 139.677876 
L 169.034666 138.658614 
L 169.590927 138.755914 
L 170.332608 138.67633 
L 170.888869 138.459975 
L 171.445129 137.935961 
L 172.18681 137.30199 
L 172.557651 137.197545 
L 173.484752 137.338303 
L 173.855592 136.997942 
L 174.782694 135.635056 
L 175.338954 135.408773 
L 176.451476 135.08008 
L 177.007736 135.284874 
L 177.749417 134.900815 
L 178.120258 135.197396 
L 178.491111 135.500961 
L 179.047371 135.667515 
L 179.789052 135.331116 
L 180.530733 135.477412 
L 181.643255 135.270129 
L 182.570356 136.11034 
L 183.126617 136.665102 
L 183.682877 137.509326 
L 184.053718 137.53258 
L 184.609978 137.414783 
L 184.980819 137.459205 
L 185.351659 137.830205 
L 186.09334 138.717353 
L 186.464181 138.824928 
L 186.835021 138.834107 
L 187.576702 139.207168 
L 187.947543 139.211851 
L 189.060064 139.752349 
L 189.430905 140.169564 
L 190.358006 141.851885 
L 190.914279 142.552087 
L 191.65596 143.78666 
L 192.583061 145.308956 
L 192.953901 145.507328 
L 193.324742 145.415541 
L 193.695582 145.028618 
L 194.808104 143.256759 
L 195.920625 142.270412 
L 196.291466 142.385721 
L 197.033147 142.977839 
L 197.960248 144.01784 
L 198.516508 144.038712 
L 199.258189 143.777321 
L 199.99987 144.321191 
L 200.741551 144.72607 
L 201.112392 144.523711 
L 201.297812 144.541533 
L 202.039493 144.992626 
L 202.781174 145.142884 
L 202.966594 145.235125 
L 203.152014 145.459107 
L 205.377069 150.222734 
L 205.93333 150.980578 
L 207.045852 151.736146 
L 207.602112 152.03072 
L 208.343793 152.255611 
L 208.714634 152.435465 
L 209.641735 153.228685 
L 210.568836 154.100526 
L 211.310517 155.037875 
L 211.866778 155.389421 
L 212.237618 155.223242 
L 212.608459 154.926741 
L 213.53556 154.675331 
L 214.091821 154.000149 
L 215.018922 152.853028 
L 215.389762 152.784576 
L 216.687716 152.862287 
L 217.243977 152.728353 
L 217.985658 152.234605 
L 218.541919 151.664804 
L 218.912759 151.807595 
L 220.581541 153.118996 
L 221.323222 153.235536 
L 221.694063 153.425933 
L 221.694063 153.425933 
" clip-path="url(#p7c5c17a140)" style="fill: none; stroke: #0000ff; stroke-width: 1.5; stroke-linecap: square"/>
   </g>
   <g id="patch_3">
    <path d="M 36.459063 183.26625 
L 36.459063 9.32625 
" style="fill: none; stroke: #000000; stroke-width: 1.5; stroke-linejoin: miter; stroke-linecap: square"/>
   </g>
   <g id="patch_4">
    <path d="M 221.694063 183.26625 
L 221.694063 9.32625 
" style="fill: none; stroke: #000000; stroke-width: 1.5; stroke-linejoin: miter; stroke-linecap: square"/>
   </g>
   <g id="patch_5">
    <path d="M 36.459063 183.26625 
L 221.694063 183.26625 
" style="fill: none; stroke: #000000; stroke-width: 1.5; stroke-linejoin: miter; stroke-linecap: square"/>
   </g>
   <g id="patch_6">
    <path d="M 36.459063 9.32625 
L 221.694063 9.32625 
" style="fill: none; stroke: #000000; stroke-width: 1.5; stroke-linejoin: miter; stroke-linecap: square"/>
   </g>
  </g>
  <g id="axes_2">
   <g id="patch_7">
    <path d="M 280.944063 183.26625 
L 466.179063 183.26625 
L 466.179063 9.32625 
L 280.944063 9.32625 
z
" style="fill: #ffffff"/>
   </g>
   <g id="matplotlib.axis_3">
    <g id="xtick_17">
     <g id="line2d_62">
      <g>
       <use xlink:href="#m28d27570ad" x="280.944063" y="183.26625" style="stroke: #000000; stroke-width: 1.5"/>
      </g>
     </g>
     <g id="line2d_63">
      <g>
       <use xlink:href="#m81129c5e28" x="280.944063" y="9.32625" style="stroke: #000000; stroke-width: 1.5"/>
      </g>
     </g>
     <g id="text_11">
      <!-- 0 -->
      <g transform="translate(276.495313 198.21875)scale(0.16 -0.16)">
       <use xlink:href="#ArialMT-30"/>
      </g>
     </g>
    </g>
    <g id="xtick_18">
     <g id="line2d_64">
      <g>
       <use xlink:href="#m28d27570ad" x="342.689063" y="183.26625" style="stroke: #000000; stroke-width: 1.5"/>
      </g>
     </g>
     <g id="line2d_65">
      <g>
       <use xlink:href="#m81129c5e28" x="342.689063" y="9.32625" style="stroke: #000000; stroke-width: 1.5"/>
      </g>
     </g>
     <g id="text_12">
      <!-- 5 -->
      <g transform="translate(338.240313 198.21875)scale(0.16 -0.16)">
       <use xlink:href="#ArialMT-35"/>
      </g>
     </g>
    </g>
    <g id="xtick_19">
     <g id="line2d_66">
      <g>
       <use xlink:href="#m28d27570ad" x="404.434063" y="183.26625" style="stroke: #000000; stroke-width: 1.5"/>
      </g>
     </g>
     <g id="line2d_67">
      <g>
       <use xlink:href="#m81129c5e28" x="404.434063" y="9.32625" style="stroke: #000000; stroke-width: 1.5"/>
      </g>
     </g>
     <g id="text_13">
      <!-- 10 -->
      <g transform="translate(395.536563 198.21875)scale(0.16 -0.16)">
       <use xlink:href="#ArialMT-31"/>
       <use xlink:href="#ArialMT-30" x="55.615234"/>
      </g>
     </g>
    </g>
    <g id="xtick_20">
     <g id="line2d_68">
      <g>
       <use xlink:href="#m28d27570ad" x="466.179063" y="183.26625" style="stroke: #000000; stroke-width: 1.5"/>
      </g>
     </g>
     <g id="line2d_69">
      <g>
       <use xlink:href="#m81129c5e28" x="466.179063" y="9.32625" style="stroke: #000000; stroke-width: 1.5"/>
      </g>
     </g>
     <g id="text_14">
      <!-- 15 -->
      <g transform="translate(457.281563 198.21875)scale(0.16 -0.16)">
       <use xlink:href="#ArialMT-31"/>
       <use xlink:href="#ArialMT-35" x="55.615234"/>
      </g>
     </g>
    </g>
    <g id="xtick_21">
     <g id="line2d_70">
      <g>
       <use xlink:href="#ma05d2a6437" x="293.293063" y="183.26625" style="stroke: #000000; stroke-width: 1.5"/>
      </g>
     </g>
     <g id="line2d_71">
      <g>
       <use xlink:href="#m173fed2b85" x="293.293063" y="9.32625" style="stroke: #000000; stroke-width: 1.5"/>
      </g>
     </g>
    </g>
    <g id="xtick_22">
     <g id="line2d_72">
      <g>
       <use xlink:href="#ma05d2a6437" x="305.642063" y="183.26625" style="stroke: #000000; stroke-width: 1.5"/>
      </g>
     </g>
     <g id="line2d_73">
      <g>
       <use xlink:href="#m173fed2b85" x="305.642063" y="9.32625" style="stroke: #000000; stroke-width: 1.5"/>
      </g>
     </g>
    </g>
    <g id="xtick_23">
     <g id="line2d_74">
      <g>
       <use xlink:href="#ma05d2a6437" x="317.991063" y="183.26625" style="stroke: #000000; stroke-width: 1.5"/>
      </g>
     </g>
     <g id="line2d_75">
      <g>
       <use xlink:href="#m173fed2b85" x="317.991063" y="9.32625" style="stroke: #000000; stroke-width: 1.5"/>
      </g>
     </g>
    </g>
    <g id="xtick_24">
     <g id="line2d_76">
      <g>
       <use xlink:href="#ma05d2a6437" x="330.340063" y="183.26625" style="stroke: #000000; stroke-width: 1.5"/>
      </g>
     </g>
     <g id="line2d_77">
      <g>
       <use xlink:href="#m173fed2b85" x="330.340063" y="9.32625" style="stroke: #000000; stroke-width: 1.5"/>
      </g>
     </g>
    </g>
    <g id="xtick_25">
     <g id="line2d_78">
      <g>
       <use xlink:href="#ma05d2a6437" x="355.038063" y="183.26625" style="stroke: #000000; stroke-width: 1.5"/>
      </g>
     </g>
     <g id="line2d_79">
      <g>
       <use xlink:href="#m173fed2b85" x="355.038063" y="9.32625" style="stroke: #000000; stroke-width: 1.5"/>
      </g>
     </g>
    </g>
    <g id="xtick_26">
     <g id="line2d_80">
      <g>
       <use xlink:href="#ma05d2a6437" x="367.387063" y="183.26625" style="stroke: #000000; stroke-width: 1.5"/>
      </g>
     </g>
     <g id="line2d_81">
      <g>
       <use xlink:href="#m173fed2b85" x="367.387063" y="9.32625" style="stroke: #000000; stroke-width: 1.5"/>
      </g>
     </g>
    </g>
    <g id="xtick_27">
     <g id="line2d_82">
      <g>
       <use xlink:href="#ma05d2a6437" x="379.736063" y="183.26625" style="stroke: #000000; stroke-width: 1.5"/>
      </g>
     </g>
     <g id="line2d_83">
      <g>
       <use xlink:href="#m173fed2b85" x="379.736063" y="9.32625" style="stroke: #000000; stroke-width: 1.5"/>
      </g>
     </g>
    </g>
    <g id="xtick_28">
     <g id="line2d_84">
      <g>
       <use xlink:href="#ma05d2a6437" x="392.085063" y="183.26625" style="stroke: #000000; stroke-width: 1.5"/>
      </g>
     </g>
     <g id="line2d_85">
      <g>
       <use xlink:href="#m173fed2b85" x="392.085063" y="9.32625" style="stroke: #000000; stroke-width: 1.5"/>
      </g>
     </g>
    </g>
    <g id="xtick_29">
     <g id="line2d_86">
      <g>
       <use xlink:href="#ma05d2a6437" x="416.783063" y="183.26625" style="stroke: #000000; stroke-width: 1.5"/>
      </g>
     </g>
     <g id="line2d_87">
      <g>
       <use xlink:href="#m173fed2b85" x="416.783063" y="9.32625" style="stroke: #000000; stroke-width: 1.5"/>
      </g>
     </g>
    </g>
    <g id="xtick_30">
     <g id="line2d_88">
      <g>
       <use xlink:href="#ma05d2a6437" x="429.132063" y="183.26625" style="stroke: #000000; stroke-width: 1.5"/>
      </g>
     </g>
     <g id="line2d_89">
      <g>
       <use xlink:href="#m173fed2b85" x="429.132063" y="9.32625" style="stroke: #000000; stroke-width: 1.5"/>
      </g>
     </g>
    </g>
    <g id="xtick_31">
     <g id="line2d_90">
      <g>
       <use xlink:href="#ma05d2a6437" x="441.481063" y="183.26625" style="stroke: #000000; stroke-width: 1.5"/>
      </g>
     </g>
     <g id="line2d_91">
      <g>
       <use xlink:href="#m173fed2b85" x="441.481063" y="9.32625" style="stroke: #000000; stroke-width: 1.5"/>
      </g>
     </g>
    </g>
    <g id="xtick_32">
     <g id="line2d_92">
      <g>
       <use xlink:href="#ma05d2a6437" x="453.830063" y="183.26625" style="stroke: #000000; stroke-width: 1.5"/>
      </g>
     </g>
     <g id="line2d_93">
      <g>
       <use xlink:href="#m173fed2b85" x="453.830063" y="9.32625" style="stroke: #000000; stroke-width: 1.5"/>
      </g>
     </g>
    </g>
    <g id="text_15">
     <!-- $\hbar \omega$ (eV) -->
     <g transform="translate(340.261563 219.07875)scale(0.18 -0.18)">
      <use xlink:href="#DejaVuSans-Oblique-127" transform="translate(0 0.015625)"/>
      <use xlink:href="#DejaVuSans-Oblique-3c9" transform="translate(69.482422 0.015625)"/>
      <use xlink:href="#ArialMT-20" transform="translate(153.222656 0.015625)"/>
      <use xlink:href="#ArialMT-28" transform="translate(181.005859 0.015625)"/>
      <use xlink:href="#ArialMT-65" transform="translate(214.306641 0.015625)"/>
      <use xlink:href="#ArialMT-56" transform="translate(269.921875 0.015625)"/>
      <use xlink:href="#ArialMT-29" transform="translate(336.621094 0.015625)"/>
     </g>
    </g>
   </g>
   <g id="matplotlib.axis_4">
    <g id="ytick_15">
     <g id="line2d_94">
      <g>
       <use xlink:href="#m4f9059b154" x="280.944063" y="183.26625" style="stroke: #000000; stroke-width: 1.5"/>
      </g>
     </g>
     <g id="line2d_95">
      <g>
       <use xlink:href="#mf6a5b3c64a" x="466.179063" y="183.26625" style="stroke: #000000; stroke-width: 1.5"/>
      </g>
     </g>
     <g id="text_16">
      <!-- 0 -->
      <g transform="translate(268.546563 188.9925)scale(0.16 -0.16)">
       <use xlink:href="#ArialMT-30"/>
      </g>
     </g>
    </g>
    <g id="ytick_16">
     <g id="line2d_96">
      <g>
       <use xlink:href="#m4f9059b154" x="280.944063" y="139.78125" style="stroke: #000000; stroke-width: 1.5"/>
      </g>
     </g>
     <g id="line2d_97">
      <g>
       <use xlink:href="#mf6a5b3c64a" x="466.179063" y="139.78125" style="stroke: #000000; stroke-width: 1.5"/>
      </g>
     </g>
     <g id="text_17">
      <!-- 1 -->
      <g transform="translate(268.546563 145.5075)scale(0.16 -0.16)">
       <use xlink:href="#ArialMT-31"/>
      </g>
     </g>
    </g>
    <g id="ytick_17">
     <g id="line2d_98">
      <g>
       <use xlink:href="#m4f9059b154" x="280.944063" y="96.29625" style="stroke: #000000; stroke-width: 1.5"/>
      </g>
     </g>
     <g id="line2d_99">
      <g>
       <use xlink:href="#mf6a5b3c64a" x="466.179063" y="96.29625" style="stroke: #000000; stroke-width: 1.5"/>
      </g>
     </g>
     <g id="text_18">
      <!-- 2 -->
      <g transform="translate(268.546563 102.0225)scale(0.16 -0.16)">
       <use xlink:href="#ArialMT-32"/>
      </g>
     </g>
    </g>
    <g id="ytick_18">
     <g id="line2d_100">
      <g>
       <use xlink:href="#m4f9059b154" x="280.944063" y="52.81125" style="stroke: #000000; stroke-width: 1.5"/>
      </g>
     </g>
     <g id="line2d_101">
      <g>
       <use xlink:href="#mf6a5b3c64a" x="466.179063" y="52.81125" style="stroke: #000000; stroke-width: 1.5"/>
      </g>
     </g>
     <g id="text_19">
      <!-- 3 -->
      <g transform="translate(268.546563 58.5375)scale(0.16 -0.16)">
       <defs>
        <path id="ArialMT-33" d="M 269 1209 
L 831 1284 
Q 928 806 1161 595 
Q 1394 384 1728 384 
Q 2125 384 2398 659 
Q 2672 934 2672 1341 
Q 2672 1728 2419 1979 
Q 2166 2231 1775 2231 
Q 1616 2231 1378 2169 
L 1441 2663 
Q 1497 2656 1531 2656 
Q 1891 2656 2178 2843 
Q 2466 3031 2466 3422 
Q 2466 3731 2256 3934 
Q 2047 4138 1716 4138 
Q 1388 4138 1169 3931 
Q 950 3725 888 3313 
L 325 3413 
Q 428 3978 793 4289 
Q 1159 4600 1703 4600 
Q 2078 4600 2393 4439 
Q 2709 4278 2876 4000 
Q 3044 3722 3044 3409 
Q 3044 3113 2884 2869 
Q 2725 2625 2413 2481 
Q 2819 2388 3044 2092 
Q 3269 1797 3269 1353 
Q 3269 753 2831 336 
Q 2394 -81 1725 -81 
Q 1122 -81 723 278 
Q 325 638 269 1209 
z
" transform="scale(0.015625)"/>
       </defs>
       <use xlink:href="#ArialMT-33"/>
      </g>
     </g>
    </g>
    <g id="ytick_19">
     <g id="line2d_102">
      <g>
       <use xlink:href="#m4f9059b154" x="280.944063" y="9.32625" style="stroke: #000000; stroke-width: 1.5"/>
      </g>
     </g>
     <g id="line2d_103">
      <g>
       <use xlink:href="#mf6a5b3c64a" x="466.179063" y="9.32625" style="stroke: #000000; stroke-width: 1.5"/>
      </g>
     </g>
     <g id="text_20">
      <!-- 4 -->
      <g transform="translate(268.546563 15.0525)scale(0.16 -0.16)">
       <use xlink:href="#ArialMT-34"/>
      </g>
     </g>
    </g>
    <g id="ytick_20">
     <g id="line2d_104">
      <g>
       <use xlink:href="#md0b93c266d" x="280.944063" y="174.56925" style="stroke: #000000; stroke-width: 1.5"/>
      </g>
     </g>
     <g id="line2d_105">
      <g>
       <use xlink:href="#ma901343ac4" x="466.179063" y="174.56925" style="stroke: #000000; stroke-width: 1.5"/>
      </g>
     </g>
    </g>
    <g id="ytick_21">
     <g id="line2d_106">
      <g>
       <use xlink:href="#md0b93c266d" x="280.944063" y="165.87225" style="stroke: #000000; stroke-width: 1.5"/>
      </g>
     </g>
     <g id="line2d_107">
      <g>
       <use xlink:href="#ma901343ac4" x="466.179063" y="165.87225" style="stroke: #000000; stroke-width: 1.5"/>
      </g>
     </g>
    </g>
    <g id="ytick_22">
     <g id="line2d_108">
      <g>
       <use xlink:href="#md0b93c266d" x="280.944063" y="157.17525" style="stroke: #000000; stroke-width: 1.5"/>
      </g>
     </g>
     <g id="line2d_109">
      <g>
       <use xlink:href="#ma901343ac4" x="466.179063" y="157.17525" style="stroke: #000000; stroke-width: 1.5"/>
      </g>
     </g>
    </g>
    <g id="ytick_23">
     <g id="line2d_110">
      <g>
       <use xlink:href="#md0b93c266d" x="280.944063" y="148.47825" style="stroke: #000000; stroke-width: 1.5"/>
      </g>
     </g>
     <g id="line2d_111">
      <g>
       <use xlink:href="#ma901343ac4" x="466.179063" y="148.47825" style="stroke: #000000; stroke-width: 1.5"/>
      </g>
     </g>
    </g>
    <g id="ytick_24">
     <g id="line2d_112">
      <g>
       <use xlink:href="#md0b93c266d" x="280.944063" y="131.08425" style="stroke: #000000; stroke-width: 1.5"/>
      </g>
     </g>
     <g id="line2d_113">
      <g>
       <use xlink:href="#ma901343ac4" x="466.179063" y="131.08425" style="stroke: #000000; stroke-width: 1.5"/>
      </g>
     </g>
    </g>
    <g id="ytick_25">
     <g id="line2d_114">
      <g>
       <use xlink:href="#md0b93c266d" x="280.944063" y="122.38725" style="stroke: #000000; stroke-width: 1.5"/>
      </g>
     </g>
     <g id="line2d_115">
      <g>
       <use xlink:href="#ma901343ac4" x="466.179063" y="122.38725" style="stroke: #000000; stroke-width: 1.5"/>
      </g>
     </g>
    </g>
    <g id="ytick_26">
     <g id="line2d_116">
      <g>
       <use xlink:href="#md0b93c266d" x="280.944063" y="113.69025" style="stroke: #000000; stroke-width: 1.5"/>
      </g>
     </g>
     <g id="line2d_117">
      <g>
       <use xlink:href="#ma901343ac4" x="466.179063" y="113.69025" style="stroke: #000000; stroke-width: 1.5"/>
      </g>
     </g>
    </g>
    <g id="ytick_27">
     <g id="line2d_118">
      <g>
       <use xlink:href="#md0b93c266d" x="280.944063" y="104.99325" style="stroke: #000000; stroke-width: 1.5"/>
      </g>
     </g>
     <g id="line2d_119">
      <g>
       <use xlink:href="#ma901343ac4" x="466.179063" y="104.99325" style="stroke: #000000; stroke-width: 1.5"/>
      </g>
     </g>
    </g>
    <g id="ytick_28">
     <g id="line2d_120">
      <g>
       <use xlink:href="#md0b93c266d" x="280.944063" y="87.59925" style="stroke: #000000; stroke-width: 1.5"/>
      </g>
     </g>
     <g id="line2d_121">
      <g>
       <use xlink:href="#ma901343ac4" x="466.179063" y="87.59925" style="stroke: #000000; stroke-width: 1.5"/>
      </g>
     </g>
    </g>
    <g id="ytick_29">
     <g id="line2d_122">
      <g>
       <use xlink:href="#md0b93c266d" x="280.944063" y="78.90225" style="stroke: #000000; stroke-width: 1.5"/>
      </g>
     </g>
     <g id="line2d_123">
      <g>
       <use xlink:href="#ma901343ac4" x="466.179063" y="78.90225" style="stroke: #000000; stroke-width: 1.5"/>
      </g>
     </g>
    </g>
    <g id="ytick_30">
     <g id="line2d_124">
      <g>
       <use xlink:href="#md0b93c266d" x="280.944063" y="70.20525" style="stroke: #000000; stroke-width: 1.5"/>
      </g>
     </g>
     <g id="line2d_125">
      <g>
       <use xlink:href="#ma901343ac4" x="466.179063" y="70.20525" style="stroke: #000000; stroke-width: 1.5"/>
      </g>
     </g>
    </g>
    <g id="ytick_31">
     <g id="line2d_126">
      <g>
       <use xlink:href="#md0b93c266d" x="280.944063" y="61.50825" style="stroke: #000000; stroke-width: 1.5"/>
      </g>
     </g>
     <g id="line2d_127">
      <g>
       <use xlink:href="#ma901343ac4" x="466.179063" y="61.50825" style="stroke: #000000; stroke-width: 1.5"/>
      </g>
     </g>
    </g>
    <g id="ytick_32">
     <g id="line2d_128">
      <g>
       <use xlink:href="#md0b93c266d" x="280.944063" y="44.11425" style="stroke: #000000; stroke-width: 1.5"/>
      </g>
     </g>
     <g id="line2d_129">
      <g>
       <use xlink:href="#ma901343ac4" x="466.179063" y="44.11425" style="stroke: #000000; stroke-width: 1.5"/>
      </g>
     </g>
    </g>
    <g id="ytick_33">
     <g id="line2d_130">
      <g>
       <use xlink:href="#md0b93c266d" x="280.944063" y="35.41725" style="stroke: #000000; stroke-width: 1.5"/>
      </g>
     </g>
     <g id="line2d_131">
      <g>
       <use xlink:href="#ma901343ac4" x="466.179063" y="35.41725" style="stroke: #000000; stroke-width: 1.5"/>
      </g>
     </g>
    </g>
    <g id="ytick_34">
     <g id="line2d_132">
      <g>
       <use xlink:href="#md0b93c266d" x="280.944063" y="26.72025" style="stroke: #000000; stroke-width: 1.5"/>
      </g>
     </g>
     <g id="line2d_133">
      <g>
       <use xlink:href="#ma901343ac4" x="466.179063" y="26.72025" style="stroke: #000000; stroke-width: 1.5"/>
      </g>
     </g>
    </g>
    <g id="ytick_35">
     <g id="line2d_134">
      <g>
       <use xlink:href="#md0b93c266d" x="280.944063" y="18.02325" style="stroke: #000000; stroke-width: 1.5"/>
      </g>
     </g>
     <g id="line2d_135">
      <g>
       <use xlink:href="#ma901343ac4" x="466.179063" y="18.02325" style="stroke: #000000; stroke-width: 1.5"/>
      </g>
     </g>
    </g>
    <g id="text_21">
     <!-- $\kappa(\hbar \omega)$ -->
     <g transform="translate(260.969063 122.48625)rotate(-90)scale(0.18 -0.18)">
      <defs>
       <path id="DejaVuSans-Oblique-3ba" d="M 938 3500 
L 1531 3500 
L 1247 2047 
L 3041 3500 
L 3741 3500 
L 2106 2181 
L 3275 0 
L 2572 0 
L 1628 1806 
L 1122 1403 
L 850 0 
L 256 0 
L 938 3500 
z
" transform="scale(0.015625)"/>
      </defs>
      <use xlink:href="#DejaVuSans-Oblique-3ba" transform="translate(0 0.015625)"/>
      <use xlink:href="#DejaVuSans-28" transform="translate(58.935547 0.015625)"/>
      <use xlink:href="#DejaVuSans-Oblique-127" transform="translate(97.949219 0.015625)"/>
      <use xlink:href="#DejaVuSans-Oblique-3c9" transform="translate(167.431641 0.015625)"/>
      <use xlink:href="#DejaVuSans-29" transform="translate(251.171875 0.015625)"/>
     </g>
    </g>
   </g>
   <g id="line2d_136">
    <path d="M 280.944063 183.26625 
L 283.354526 181.891385 
L 284.467047 181.043906 
L 285.394148 180.063406 
L 286.135829 178.900139 
L 286.69209 177.558844 
L 287.06293 176.211548 
L 287.433783 174.143967 
L 287.804624 170.652773 
L 288.917145 155.821345 
L 289.473406 152.12625 
L 289.844246 147.310199 
L 291.513028 119.258896 
L 291.883869 113.015015 
L 292.62555 97.799396 
L 292.99639 95.095977 
L 293.18181 94.812672 
L 293.367231 94.859549 
L 293.923491 95.891709 
L 294.108912 95.156986 
L 294.665172 90.20922 
L 294.850592 87.367823 
L 295.777694 66.26377 
L 296.148534 62.226013 
L 296.519375 54.804298 
L 297.817316 20.510679 
L 298.002736 19.208695 
L 298.188157 18.780324 
L 298.373577 19.047148 
L 298.558997 18.746014 
L 299.300678 11.795633 
L 299.486111 12.474738 
L 299.671531 14.360074 
L 300.042371 21.857627 
L 300.784052 44.667901 
L 301.154893 48.156703 
L 301.525733 49.418724 
L 302.823675 56.1332 
L 304.121617 65.853445 
L 305.048718 70.919317 
L 305.790399 73.764106 
L 305.975819 73.265681 
L 306.53208 71.130437 
L 306.90292 69.512969 
L 307.644601 65.516045 
L 307.830021 66.08122 
L 308.757122 72.978941 
L 308.942543 73.167448 
L 309.313383 73.023121 
L 309.684224 72.32397 
L 309.869644 72.515695 
L 310.240484 73.828986 
L 310.425905 73.69166 
L 310.796745 71.412655 
L 311.353006 67.559188 
L 311.909279 64.789715 
L 312.280119 63.051881 
L 312.465539 62.870592 
L 312.65096 63.241953 
L 312.83638 64.230976 
L 313.20722 68.423713 
L 313.578061 72.429856 
L 313.763481 72.484951 
L 314.134322 69.67956 
L 314.690582 64.413178 
L 315.061423 63.086886 
L 315.432263 62.237624 
L 315.803104 61.03996 
L 315.988524 61.002128 
L 316.173944 61.216596 
L 316.359364 61.619528 
L 316.730205 63.386063 
L 317.471886 67.69947 
L 317.842726 68.916224 
L 318.028147 68.896134 
L 318.398987 68.28991 
L 318.584407 68.185111 
L 318.769827 68.32335 
L 318.955248 68.875131 
L 320.253189 76.065767 
L 320.99487 77.973845 
L 321.180291 78.16457 
L 321.365711 78.028941 
L 321.736551 77.088621 
L 322.107392 75.902785 
L 322.292812 76.026065 
L 322.663652 77.902834 
L 323.034493 79.89436 
L 323.405333 81.320059 
L 323.776174 84.15776 
L 324.517867 91.853301 
L 324.888708 93.625445 
L 325.259548 94.467053 
L 325.815809 94.986134 
L 326.001229 94.87803 
L 326.55749 93.997372 
L 327.299171 94.872986 
L 327.484591 94.960391 
L 327.670011 95.338015 
L 328.040852 96.957613 
L 328.597112 100.860262 
L 329.153373 104.878015 
L 329.524213 105.856645 
L 329.895054 106.545056 
L 331.192996 109.740594 
L 331.563836 111.140724 
L 332.120097 112.221022 
L 332.490937 113.948768 
L 333.047198 117.108171 
L 333.788879 120.461865 
L 334.53056 124.870765 
L 334.9014 126.749665 
L 335.457661 129.986384 
L 335.643081 130.356355 
L 336.384762 130.869652 
L 336.755615 131.908378 
L 338.053557 136.415076 
L 338.795238 137.126665 
L 338.980658 137.071439 
L 339.351498 136.308147 
L 339.907759 134.868706 
L 340.093179 134.767777 
L 340.278599 134.888709 
L 340.83486 135.79685 
L 341.576541 135.65148 
L 341.761961 135.427836 
L 342.132802 134.100587 
L 342.689063 130.004126 
L 343.430743 123.191722 
L 343.987004 117.059163 
L 344.172424 116.00987 
L 344.357845 115.658685 
L 344.543265 115.836713 
L 345.470366 118.347102 
L 346.212047 121.03478 
L 346.397467 120.990816 
L 346.768308 120.600234 
L 346.953728 120.559141 
L 347.139148 120.745996 
L 347.509989 121.912959 
L 348.25167 124.695956 
L 348.62251 125.65854 
L 348.993363 126.935216 
L 349.178783 127.136073 
L 349.364203 126.971874 
L 350.105884 125.805214 
L 350.476725 125.60714 
L 351.218406 124.600376 
L 351.774666 124.774229 
L 351.960087 124.817235 
L 352.145507 125.072753 
L 352.701768 126.497191 
L 352.887188 126.587771 
L 353.258028 126.525239 
L 353.628869 126.685133 
L 353.814289 126.520238 
L 354.185129 125.46551 
L 354.55597 124.394518 
L 355.112231 123.698714 
L 355.297651 123.611962 
L 355.483071 123.915574 
L 356.039332 125.87092 
L 356.224752 126.005245 
L 356.410172 125.718331 
L 357.151853 123.673797 
L 357.337273 123.450893 
L 357.522694 123.498988 
L 358.635215 124.714741 
L 358.820635 124.80145 
L 359.376896 125.517735 
L 359.562316 125.381845 
L 360.118577 124.436437 
L 360.303997 124.56924 
L 361.787371 128.100179 
L 362.158212 128.512025 
L 362.343632 128.341477 
L 362.899893 126.656433 
L 363.085313 126.538676 
L 363.270733 126.747143 
L 364.012414 128.244636 
L 364.383255 128.341825 
L 364.568675 128.324518 
L 364.754095 128.47228 
L 365.310356 129.508962 
L 365.495776 129.56671 
L 365.866617 129.148472 
L 366.237457 128.635958 
L 366.422877 128.602778 
L 366.793718 129.023104 
L 367.164558 129.532096 
L 367.349978 129.505918 
L 367.720819 128.554075 
L 368.4625 126.419875 
L 368.64792 126.353212 
L 369.389601 127.154945 
L 369.760442 127.267789 
L 370.131282 127.783391 
L 371.429224 130.237728 
L 371.800064 130.534687 
L 371.985484 130.511987 
L 372.727165 129.571842 
L 373.098006 128.892476 
L 373.468846 127.546528 
L 374.210539 124.727439 
L 374.58138 124.347945 
L 375.137641 124.27676 
L 375.693901 123.689278 
L 375.879322 123.706063 
L 376.250162 124.159786 
L 376.991843 125.396542 
L 377.362683 125.536912 
L 377.548104 125.456552 
L 378.289785 124.554499 
L 378.660625 124.588113 
L 379.031466 124.865069 
L 379.958567 126.103391 
L 380.329407 126.675045 
L 380.514827 126.620558 
L 381.071088 126.235672 
L 381.812769 126.268591 
L 382.18361 125.718766 
L 382.925291 123.784597 
L 383.110711 123.819168 
L 383.481551 124.646209 
L 384.037812 126.3593 
L 384.408652 126.77393 
L 384.964913 126.800456 
L 385.150333 126.987006 
L 385.706594 128.279902 
L 386.262867 129.387944 
L 386.633708 129.535271 
L 387.004548 129.705993 
L 387.560809 130.398231 
L 388.48791 132.102538 
L 389.600431 135.158142 
L 390.156692 136.14286 
L 390.898373 137.284689 
L 391.454634 139.043049 
L 392.010894 140.6633 
L 392.381735 141.145287 
L 392.752575 141.295137 
L 392.937996 141.301051 
L 393.123416 141.43268 
L 393.494256 141.93728 
L 393.679677 141.98607 
L 394.050517 141.897795 
L 394.235937 142.056907 
L 394.606778 142.830853 
L 395.533879 145.72852 
L 395.719299 145.869585 
L 396.09014 145.685904 
L 397.758922 144.107529 
L 398.500615 142.421268 
L 398.871455 141.86853 
L 399.798557 141.183772 
L 400.725658 139.423281 
L 401.652759 139.241688 
L 402.023599 138.873022 
L 402.20902 138.873153 
L 402.57986 139.412149 
L 402.950701 139.988978 
L 403.877802 140.398433 
L 406.102845 142.954524 
L 406.473685 142.89308 
L 406.844526 142.457404 
L 407.215366 141.506126 
L 407.771627 139.720197 
L 408.327887 138.691342 
L 408.884148 137.431799 
L 409.069568 137.290951 
L 409.811249 137.342655 
L 410.55293 137.069047 
L 411.109203 136.227525 
L 411.480044 135.849075 
L 411.665464 136.012753 
L 412.036304 137.027649 
L 412.592565 138.513532 
L 412.963406 138.901331 
L 413.148826 138.903592 
L 413.705087 138.173783 
L 414.632188 138.276756 
L 415.188448 138.635594 
L 415.744709 138.960079 
L 416.11555 138.841278 
L 416.48639 138.547624 
L 417.413491 137.470196 
L 417.784332 137.664705 
L 418.526013 138.295237 
L 418.711433 138.203353 
L 419.082273 137.648615 
L 419.823954 136.084286 
L 420.565635 134.867619 
L 421.121896 133.663084 
L 421.863577 133.085343 
L 422.790678 131.036982 
L 423.346951 130.816687 
L 423.717792 130.844039 
L 424.088632 130.284604 
L 424.644893 129.360026 
L 425.201154 128.836989 
L 425.757414 127.928848 
L 426.684515 125.581615 
L 427.797037 123.924097 
L 427.982457 123.929706 
L 428.538718 124.449831 
L 428.909558 124.195835 
L 429.280399 123.65175 
L 429.836659 122.507051 
L 430.2075 122.190219 
L 430.57834 122.229139 
L 430.949181 122.396338 
L 431.320021 122.074158 
L 431.690862 121.728322 
L 432.061702 121.660355 
L 432.432543 121.244551 
L 433.730484 119.115917 
L 434.101325 118.244391 
L 434.286745 118.073321 
L 434.657586 118.237129 
L 435.028426 118.266655 
L 435.584699 118.153811 
L 435.955539 118.194992 
L 436.32638 118.54909 
L 436.69722 119.193668 
L 437.068061 120.270009 
L 438.180582 124.016763 
L 438.551423 124.667647 
L 438.736843 124.671691 
L 439.849364 123.521295 
L 440.220205 122.775615 
L 440.961886 120.794786 
L 441.703567 119.559899 
L 441.888987 119.400613 
L 442.074407 119.399961 
L 443.001508 119.937609 
L 443.186929 119.937827 
L 443.372349 119.792544 
L 444.11403 118.489863 
L 444.48487 118.296486 
L 444.855711 118.015703 
L 445.226551 118.20595 
L 445.411971 118.132765 
L 446.524493 116.511992 
L 446.895333 115.947643 
L 447.266174 115.109774 
L 448.007867 112.690617 
L 448.378708 112.494804 
L 448.934968 112.602429 
L 449.491229 112.897779 
L 449.862069 113.326889 
L 450.974591 115.172262 
L 451.345431 115.469221 
L 452.643373 116.906748 
L 453.014213 116.956582 
L 453.385054 116.914054 
L 455.053836 117.918427 
L 455.424677 118.451205 
L 456.166357 120.331671 
L 456.908038 122.441302 
L 457.464299 123.057136 
L 458.576821 125.061925 
L 458.947661 125.151678 
L 459.318501 124.885768 
L 460.060195 123.912312 
L 460.431035 123.779205 
L 461.358136 123.769899 
L 461.914397 123.867436 
L 462.470658 123.803383 
L 462.656078 123.619006 
L 463.026919 122.636158 
L 463.583179 121.221722 
L 464.13944 120.509046 
L 464.51028 120.31045 
L 465.251961 120.335628 
L 465.808222 119.786195 
L 466.179063 119.373174 
L 466.179063 119.373174 
" clip-path="url(#pba6ec4d2fc)" style="fill: none; stroke: #0000ff; stroke-width: 1.5; stroke-linecap: square"/>
   </g>
   <g id="patch_8">
    <path d="M 280.944063 183.26625 
L 280.944063 9.32625 
" style="fill: none; stroke: #000000; stroke-width: 1.5; stroke-linejoin: miter; stroke-linecap: square"/>
   </g>
   <g id="patch_9">
    <path d="M 466.179063 183.26625 
L 466.179063 9.32625 
" style="fill: none; stroke: #000000; stroke-width: 1.5; stroke-linejoin: miter; stroke-linecap: square"/>
   </g>
   <g id="patch_10">
    <path d="M 280.944063 183.26625 
L 466.179063 183.26625 
" style="fill: none; stroke: #000000; stroke-width: 1.5; stroke-linejoin: miter; stroke-linecap: square"/>
   </g>
   <g id="patch_11">
    <path d="M 280.944063 9.32625 
L 466.179063 9.32625 
" style="fill: none; stroke: #000000; stroke-width: 1.5; stroke-linejoin: miter; stroke-linecap: square"/>
   </g>
  </g>
 </g>
 <defs>
  <clipPath id="p7c5c17a140">
   <rect x="36.459063" y="9.32625" width="185.235" height="173.94"/>
  </clipPath>
  <clipPath id="pba6ec4d2fc">
   <rect x="280.944063" y="9.32625" width="185.235" height="173.94"/>
  </clipPath>
 </defs>
</svg>
